<?xml version="1.0" encoding="UTF-8"?>
<svg id="Capa_1" data-name="Capa 1" xmlns="http://www.w3.org/2000/svg" viewBox="0 0 517 242.07">
  <defs>
    <style>
      .cls-1 {
        font-family: Roboto-Medium, Roboto;
        font-weight: 500;
      }

      .cls-1, .cls-2 {
        fill: #706f6f;
        font-size: 12px;
      }

      .cls-3 {
        fill: #8c271e;
      }

      .cls-4 {
        fill: #3a8b41;
      }

      .cls-5 {
        fill: #506eb0;
      }

      .cls-6 {
        letter-spacing: -.05em;
      }

      .cls-7 {
        fill: #fff;
      }

      .cls-7, .cls-8, .cls-9 {
        stroke-miterlimit: 10;
      }

      .cls-7, .cls-9 {
        stroke: #878787;
        stroke-width: .5px;
      }

      .cls-8 {
        fill: #e3e5e3;
        stroke: #aaaaac;
      }

      .cls-10 {
        letter-spacing: 0em;
      }

      .cls-11 {
        letter-spacing: -.02em;
      }

      .cls-2 {
        font-family: Roboto-Regular, Roboto;
      }

      .cls-9 {
        fill: none;
      }
    </style>
  </defs>
  <rect class="cls-9" x="10.81" y="14.78" width="497.59" height="206.8"/>
  <line class="cls-7" x1="121.65" y1="14.78" x2="121.65" y2="221.58"/>
  <line class="cls-7" x1="194.79" y1="14.78" x2="194.79" y2="221.58"/>
  <line class="cls-7" x1="267.93" y1="14.78" x2="267.93" y2="221.58"/>
  <line class="cls-9" x1="10.81" y1="60.71" x2="508.39" y2="60.71"/>
  <line class="cls-9" x1="10.81" y1="102.95" x2="508.39" y2="102.95"/>
  <line class="cls-9" x1="10.81" y1="169.76" x2="508.39" y2="169.76"/>
  <text class="cls-1" transform="translate(24.27 39.07)"><tspan x="0" y="0">Información</tspan></text>
  <text class="cls-2" transform="translate(23.27 81.02)"><tspan x="0" y="0">Envío exi</tspan><tspan class="cls-10" x="47.25" y="0">t</tspan><tspan x="51.05" y="0">oso</tspan></text>
  <text class="cls-2" transform="translate(289.53 82.82)"><tspan class="cls-6" x="0" y="0">T</tspan><tspan x="6.58" y="0">odo funciona correctamente</tspan></text>
  <text class="cls-2" transform="translate(289.53 123.59)"><tspan x="0" y="0">Verificar si el Gate</tspan><tspan class="cls-11" x="97.17" y="0">W</tspan><tspan x="107.62" y="0">ay esta encendido</tspan><tspan x="0" y="14.4">Verificar que el canal del equipo sea</tspan><tspan x="0" y="28.8">correc</tspan><tspan class="cls-10" x="33.88" y="28.8">t</tspan><tspan x="37.69" y="28.8">o</tspan></text>
  <text class="cls-2" transform="translate(289.53 191.46)"><tspan x="0" y="0">Verificar que el equipo este conectado</tspan><tspan x="0" y="14.4">Verificar el pun</tspan><tspan class="cls-10" x="80.09" y="14.4">t</tspan><tspan x="83.89" y="14.4">o eléctrico</tspan></text>
  <text class="cls-2" transform="translate(23.27 128.39)"><tspan x="0" y="0">Batería baja -</tspan><tspan x="0" y="14.4">envío fallido</tspan></text>
  <text class="cls-2" transform="translate(23.27 191.46)"><tspan x="0" y="0">Batería buena -</tspan><tspan x="0" y="14.4">envío exi</tspan><tspan class="cls-10" x="46.79" y="14.4">t</tspan><tspan x="50.59" y="14.4">oso</tspan></text>
  <text class="cls-1" transform="translate(154.22 39.07)"><tspan x="0" y="0">1</tspan></text>
  <text class="cls-1" transform="translate(235.42 39.07)"><tspan x="0" y="0">2</tspan></text>
  <text class="cls-1" transform="translate(289.69 39.07)"><tspan x="0" y="0">Solución</tspan></text>
  <circle class="cls-5" cx="158.22" cy="81.02" r="8.37"/>
  <circle class="cls-5" cx="158.22" cy="132.09" r="8.37"/>
  <circle class="cls-8" cx="158.22" cy="193.9" r="8.37"/>
  <circle class="cls-4" cx="235.42" cy="81.02" r="8.37"/>
  <circle class="cls-3" cx="235.42" cy="132.09" r="8.37"/>
  <circle class="cls-8" cx="235.42" cy="193.9" r="8.37"/>
</svg>